<svg xmlns="http://www.w3.org/2000/svg" viewBox="0 0 1200 675"><defs><linearGradient id="bg" x1="0" x2="1"><stop stop-color="#fff8e8"/><stop offset="1" stop-color="#efe0bd"/></linearGradient></defs><rect width="1200" height="675" fill="url(#bg)"/><rect x="720" y="105" width="360" height="465" rx="35" fill="#7a1834"/><g transform="translate(765 158)"><path d="M135 0l135 52v90c0 120-63 190-135 230C63 332 0 262 0 142V52Z" fill="#f0c75e"/><path d="M135 35l92 36v66c0 82-42 137-92 170-50-33-92-88-92-170V71Z" fill="#fff7df"/><path d="M78 142h114M92 179h86M107 216h56" stroke="#7a1834" stroke-width="14" stroke-linecap="round"/></g><g stroke="#7a1834" opacity=".08"><path d="M0 130h680M0 220h680M0 310h680M0 400h680M0 490h680M0 580h680"/><path d="M120 0v675M240 0v675M360 0v675M480 0v675M600 0v675"/></g><text x="78" y="120" fill="#9c6a2c" font-family="Georgia, 'Times New Roman', serif" font-size="23" letter-spacing="6">ACADEMIC PRODUCTIVITY</text><text x="78" y="312" fill="#611229" font-family="Georgia, 'Times New Roman', serif" font-size="94" font-weight="700">Mi Pensum</text><text x="82" y="382" fill="#7f5b4b" font-family="Arial, Helvetica, sans-serif" font-size="29">Tu carrera, organizada en una sola vista.</text><text x="82" y="485" fill="#a36f2f" font-family="Arial, Helvetica, sans-serif" font-size="20" font-weight="700" letter-spacing="3">REACT · SUPABASE · ALEXA</text></svg>