<svg xmlns="http://www.w3.org/2000/svg" viewBox="0 0 1200 675"><defs><linearGradient id="bg" x1="0" x2="1" y1="0" y2="1"><stop stop-color="#071521"/><stop offset=".55" stop-color="#0b2d3a"/><stop offset="1" stop-color="#25164d"/></linearGradient><linearGradient id="neon" x1="0" x2="1"><stop stop-color="#64e4df"/><stop offset="1" stop-color="#b48cff"/></linearGradient></defs><rect width="1200" height="675" fill="url(#bg)"/><g opacity=".16" stroke="#6ee7e2" fill="none"><path d="M700 110h120v70h110v95h120v90h-70v110h-120v90H740"/><circle cx="700" cy="110" r="7" fill="#6ee7e2"/><circle cx="820" cy="180" r="7" fill="#6ee7e2"/><circle cx="930" cy="275" r="7" fill="#6ee7e2"/><circle cx="1050" cy="365" r="7" fill="#6ee7e2"/></g><g transform="translate(820 175)"><rect x="0" y="0" width="260" height="260" rx="70" fill="#102d3f" stroke="url(#neon)" stroke-width="5"/><path d="M60 88c0-40 32-72 72-72s72 32 72 72v38c0 53-43 96-96 96H74l18-34C73 168 60 141 60 112Z" fill="none" stroke="#6ee7e2" stroke-width="10"/><circle cx="104" cy="91" r="10" fill="#b48cff"/><circle cx="158" cy="91" r="10" fill="#b48cff"/><path d="M96 140c22 17 48 17 70 0" fill="none" stroke="#6ee7e2" stroke-width="8" stroke-linecap="round"/><path d="M88 222c-18 24-22 42-18 62M122 223c-8 25-8 45-3 62M158 223c10 25 12 45 7 62M190 218c20 25 26 46 24 66" fill="none" stroke="#b48cff" stroke-width="7" stroke-linecap="round"/></g><text x="76" y="120" fill="#72dcd8" font-family="ui-monospace, SFMono-Regular, Menlo, monospace" font-size="22" font-weight="700" letter-spacing="7">CLINIC AUTOMATION / MOBILE</text><text x="76" y="306" fill="url(#neon)" font-family="ui-monospace, SFMono-Regular, Menlo, monospace" font-size="86" font-weight="800" letter-spacing="3">SERVI//CHAT</text><text x="80" y="368" fill="#b7cbd5" font-family="ui-monospace, SFMono-Regular, Menlo, monospace" font-size="26" letter-spacing="1">appointments · reminders · messaging</text><rect x="80" y="458" width="500" height="64" rx="15" fill="#0e2233" stroke="#31506d"/><text x="110" y="500" fill="#c4b4ff" font-family="ui-monospace, SFMono-Regular, Menlo, monospace" font-size="20" font-weight="700" letter-spacing="2">UX/UI · PROTOTYPING · WORKFLOWS</text></svg>